<svg xmlns="http://www.w3.org/2000/svg" data-name="Layer 1" viewBox="0 0 32 40" x="20" y="20" width="20" height="20" fill="#0ac8c8"><path d="M26.094,28.15,26.951,11H27a3,3,0,0,0,0-6H21.78l-.431-1.728A3,3,0,0,0,18.438,1h-4.83a3,3,0,0,0-2.9,2.222L10.233,5H5a3,3,0,0,0,0,6h.049l.857,17.149A3,3,0,0,0,8.9,31H23.1A3,3,0,0,0,26.094,28.15ZM12.643,3.74A1,1,0,0,1,13.608,3h4.83a1,1,0,0,1,.971.758L19.72,5H12.3ZM4,8A1,1,0,0,1,5,7H27a1,1,0,0,1,0,2H5A1,1,0,0,1,4,8ZM7.9,28.05,7.051,11h17.9L24.1,28.051a1,1,0,0,1-1,.949H8.9A1,1,0,0,1,7.9,28.05Z"/><path d="M21.05,15A1,1,0,0,0,20,15.95l-.4,8a1,1,0,0,0,2,.1l.4-8A1,1,0,0,0,21.05,15Z"/><path d="M10.95,15A1,1,0,0,0,10,16.05l.4,8A1.016,1.016,0,0,0,11.45,25,1,1,0,0,0,12.4,23.95l-.4-8A1.006,1.006,0,0,0,10.95,15Z"/><path d="M16,15a1,1,0,0,0-1,1v8a1,1,0,0,0,2,0V16A1,1,0,0,0,16,15Z"/></svg>