<svg xmlns="http://www.w3.org/2000/svg" fill="#696969" width="22" height="22" viewBox="0 0 20 20" aria-labelledby="icon-svg-title- icon-svg-desc-" role="img"><title>call-line</title><path fill-rule="evenodd" clip-rule="evenodd" d="M10.4762 1.19614C10.577 0.79883 10.9853 0.557265 11.3883 0.656593C15.6834 1.71533 19.0047 5.12056 20.0703 9.44009C20.1685 9.83803 19.9209 10.2391 19.5173 10.3359C19.1137 10.4327 18.7069 10.1886 18.6087 9.79062C17.6688 5.98065 14.7506 3.01411 11.0235 2.0954C10.6205 1.99607 10.3755 1.59346 10.4762 1.19614ZM10.5563 5.83611C10.7656 5.48236 11.2261 5.36287 11.5849 5.56922C13.0093 6.38846 14.2284 7.46128 15.0867 8.91214C15.296 9.26589 15.1748 9.71996 14.8161 9.92631C14.4573 10.1327 13.9968 10.0132 13.7875 9.65942C13.086 8.47369 12.0767 7.56906 10.827 6.85028C10.4682 6.64393 10.347 6.18987 10.5563 5.83611ZM6.96642 4.05391C6.85372 3.9067 6.75908 3.78307 6.69435 3.69384C6.23347 3.04593 5.60708 2.53174 4.8068 2.39011C4.00039 2.2474 3.18343 2.51196 2.408 3.08254C1.07755 4.00615 0.215796 5.65857 0.0932615 7.59165C0.0922853 7.60705 0.0917969 7.62248 0.0917969 7.63791C0.0917969 10.6421 1.33624 13.1236 4.20144 16.0617C4.20826 16.0687 4.21521 16.0755 4.22229 16.0822C7.2021 18.9073 9.71889 20.1343 12.7658 20.1343C14.7907 20.1343 16.4578 19.1419 17.3768 17.8632C17.9603 17.1512 18.2504 16.3583 18.1499 15.5656C18.0483 14.7645 17.565 14.0999 16.8771 13.6241C16.8301 13.591 16.7766 13.553 16.7175 13.511L16.7173 13.5108C16.3051 13.218 15.6189 12.7304 14.9522 12.3512C14.5739 12.136 14.1566 11.9289 13.7696 11.818C13.5763 11.7626 13.3492 11.7188 13.116 11.7317C12.8866 11.7445 12.6105 11.8161 12.3801 12.0244C12.1785 12.1895 11.9843 12.4144 11.8214 12.6216C11.643 12.8486 11.4675 13.0995 11.3153 13.3282C11.2555 13.418 11.1987 13.5054 11.1458 13.5879C11.0249 13.5226 10.8894 13.4466 10.7433 13.3601C10.1489 13.0084 9.39602 12.4948 8.72938 11.8375C8.06275 11.1802 7.54177 10.4379 7.18512 9.85179C7.07621 9.67281 6.98363 9.51007 6.90783 9.37094L7.18685 9.14298C7.59147 8.81281 8.06026 8.43221 8.33314 8.21696C8.37259 8.18584 8.40875 8.15089 8.44109 8.11263C8.84688 7.63251 8.72475 7.03256 8.61444 6.69268C8.488 6.30307 8.26016 5.89388 8.02685 5.52725C7.6944 5.00483 7.26642 4.44579 6.96642 4.05391ZM11.4288 14.559C11.1273 15.2383 11.127 15.2382 11.127 15.2382L11.4288 14.559ZM11.1259 15.2378L11.127 15.2382C11.4791 15.3901 11.8912 15.2555 12.082 14.9265L12.0834 14.924L12.0901 14.9126L12.1173 14.8665C12.1413 14.8259 12.1767 14.7669 12.221 14.6944C12.3098 14.5489 12.4334 14.3515 12.5728 14.1419C12.7131 13.9311 12.8649 13.7151 13.0103 13.5301C13.1196 13.3912 13.2098 13.2897 13.2769 13.2237C13.2969 13.228 13.3211 13.2339 13.3497 13.2421C13.5616 13.3028 13.8546 13.439 14.2005 13.6358C14.7947 13.9738 15.4116 14.4116 15.8299 14.7085C15.8932 14.7534 15.952 14.7952 16.0055 14.8328L16.0113 14.8369C16.4359 15.1299 16.6198 15.4533 16.6574 15.7495C16.6951 16.0474 16.6022 16.4548 16.1948 16.9457C16.1829 16.9601 16.1716 16.9748 16.1608 16.99C15.5165 17.8976 14.2943 18.6512 12.7658 18.6512C10.2449 18.6512 8.08431 17.6835 5.27548 15.0232C2.58589 12.2625 1.60214 10.1369 1.59599 7.66129C1.70121 6.09509 2.39287 4.9033 3.28073 4.29051C3.28746 4.28586 3.29411 4.28111 3.30068 4.27625C3.85937 3.8631 4.26453 3.80093 4.54107 3.84987C4.82575 3.90025 5.14562 4.09862 5.46445 4.54771L5.46861 4.55346C5.56979 4.69312 5.69161 4.85204 5.82454 5.02547C6.11396 5.40303 6.45609 5.84936 6.75273 6.3155C6.9651 6.64922 7.1133 6.93351 7.18184 7.14468C7.19014 7.17025 7.19658 7.19243 7.20158 7.2115C6.92075 7.43621 6.55027 7.73732 6.22784 8.00042C6.02537 8.16563 5.84041 8.31704 5.70607 8.42713L5.48773 8.60624C5.23064 8.81748 5.14614 9.17111 5.28028 9.47342L5.28165 9.47648L5.28429 9.48237L5.29306 9.50163C5.30044 9.51772 5.31092 9.54028 5.32444 9.56876C5.3515 9.62571 5.39083 9.70648 5.44224 9.80694C5.54495 10.0076 5.69648 10.2881 5.89531 10.6148C6.29073 11.2646 6.88395 12.1153 7.66578 12.8862C8.4476 13.657 9.31035 14.2419 9.96939 14.6318C10.3008 14.8279 10.5852 14.9773 10.7888 15.0785C10.8907 15.1292 10.9726 15.168 11.0303 15.1947C11.0592 15.208 11.0821 15.2183 11.0984 15.2256L11.118 15.2343L11.1239 15.2369L11.1259 15.2378ZM5.28028 9.47342C5.28028 9.47342 5.28016 9.47315 5.96919 9.17592L5.28028 9.47342ZM7.21794 7.30942C7.21794 7.30942 7.21748 7.30581 7.21813 7.29966C7.21853 7.30653 7.21794 7.30942 7.21794 7.30942Z"></path></svg>