<svg class="rating-5" xmlns="http://www.w3.org/2000/svg" viewBox="0 0 512 512"><g fill="#ffd93b"><circle cx="256" cy="256" r="256"></circle><path d="M512 256A256 256 0 0 1 56.8 416.7a256 256 0 0 0 360-360c58 47 95.2 118.8 95.2 199.3z"></path></g><path d="M512 99.4v165.1c0 11-8.9 19.9-19.7 19.9h-187c-13 0-23.5-10.5-23.5-23.5v-21.3c0-12.9-8.9-24.8-21.6-26.7-16.2-2.5-30 10-30 25.5V261c0 13-10.5 23.5-23.5 23.5h-187A19.7 19.7 0 0 1 0 264.7V99.4c0-10.9 8.8-19.7 19.7-19.7h472.6c10.8 0 19.7 8.7 19.7 19.7z" fill="#e9eff4"></path><path d="M204.6 138v88.2a23 23 0 0 1-23 23H58.2a23 23 0 0 1-23-23v-88.3a23 23 0 0 1 23-23h123.4a23 23 0 0 1 23 23z" fill="#45cbea"></path><path d="M476.9 138v88.2a23 23 0 0 1-23 23H330.3a23 23 0 0 1-23-23v-88.3a23 23 0 0 1 23-23h123.4a23 23 0 0 1 23 23z" fill="#e84d88"></path><g fill="#38c0dc"><path d="M95.2 114.9l-60 60v15.2l75.2-75.2zM123.3 114.9L35.1 203v23.2c0 1.8.3 3.7.7 5.4l116.8-116.7h-29.3z"></path></g><g fill="#d23f77"><path d="M373.3 114.9l-66 66V196l81.3-81.2zM401.5 114.9l-94.1 94v17.3c0 3.5.8 6.8 2.2 9.8l121.1-121.1h-29.2z"></path></g><path d="M329.5 395.2c0 44.7-33 81-73.4 81-40.7 0-73.5-36.3-73.5-81s32.8-81 73.5-81c40.5 0 73.4 36.3 73.4 81z" fill="#3e4347"></path><path d="M256 476.2a70 70 0 0 0 53.3-25.5 34.6 34.6 0 0 0-58-25 34.4 34.4 0 0 0-47.8 26 69.9 69.9 0 0 0 52.6 24.5z" fill="#e24b4b"></path><path d="M290.3 434.8c-1 3.4-5.8 5.2-11 3.9s-8.4-5.1-7.4-8.7c.8-3.3 5.7-5 10.7-3.8 5.1 1.4 8.5 5.3 7.7 8.6z" fill="#fff" opacity=".2"></path></svg>