<svg class="rating-1" xmlns="http://www.w3.org/2000/svg" viewBox="0 0 512 512"><circle cx="256" cy="256" r="256" fill="#ffd93b"></circle><path d="M512 256A256 256 0 0 1 56.7 416.7a256 256 0 0 0 360-360c58.1 47 95.3 118.8 95.3 199.3z" fill="#f4c534"></path><path d="M328.4 428a92.8 92.8 0 0 0-145-.1 6.8 6.8 0 0 1-12-5.8 86.6 86.6 0 0 1 84.5-69 86.6 86.6 0 0 1 84.7 69.8c1.3 6.9-7.7 10.6-12.2 5.1z" fill="#3e4347"></path><path d="M269.2 222.3c5.3 62.8 52 113.9 104.8 113.9 52.3 0 90.8-51.1 85.6-113.9-2-25-10.8-47.9-23.7-66.7-4.1-6.1-12.2-8-18.5-4.2a111.8 111.8 0 0 1-60.1 16.2c-22.8 0-42.1-5.6-57.8-14.8-6.8-4-15.4-1.5-18.9 5.4-9 18.2-13.2 40.3-11.4 64.1z" fill="#f4c534"></path><path d="M357 189.5c25.8 0 47-7.1 63.7-18.7 10 14.6 17 32.1 18.7 51.6 4 49.6-26.1 89.7-67.5 89.7-41.6 0-78.4-40.1-82.5-89.7A95 95 0 0 1 298 174c16 9.7 35.6 15.5 59 15.5z" fill="#fff"></path><path d="M396.2 246.1a38.5 38.5 0 0 1-38.7 38.6 38.5 38.5 0 0 1-38.6-38.6 38.6 38.6 0 1 1 77.3 0z" fill="#3e4347"></path><path d="M380.4 241.1c-3.2 3.2-9.9 1.7-14.9-3.2-4.8-4.8-6.2-11.5-3-14.7 3.3-3.4 10-2 14.9 2.9 4.9 5 6.4 11.7 3 15z" fill="#fff"></path><path d="M242.8 222.3c-5.3 62.8-52 113.9-104.8 113.9-52.3 0-90.8-51.1-85.6-113.9 2-25 10.8-47.9 23.7-66.7 4.1-6.1 12.2-8 18.5-4.2 16.2 10.1 36.2 16.2 60.1 16.2 22.8 0 42.1-5.6 57.8-14.8 6.8-4 15.4-1.5 18.9 5.4 9 18.2 13.2 40.3 11.4 64.1z" fill="#f4c534"></path><path d="M155 189.5c-25.8 0-47-7.1-63.7-18.7-10 14.6-17 32.1-18.7 51.6-4 49.6 26.1 89.7 67.5 89.7 41.6 0 78.4-40.1 82.5-89.7A95 95 0 0 0 214 174c-16 9.7-35.6 15.5-59 15.5z" fill="#fff"></path><path d="M115.8 246.1a38.5 38.5 0 0 0 38.7 38.6 38.5 38.5 0 0 0 38.6-38.6 38.6 38.6 0 1 0-77.3 0z" fill="#3e4347"></path><path d="M131.6 241.1c3.2 3.2 9.9 1.7 14.9-3.2 4.8-4.8 6.2-11.5 3-14.7-3.3-3.4-10-2-14.9 2.9-4.9 5-6.4 11.7-3 15z" fill="#fff"></path></svg>