<svg xmlns="http://www.w3.org/2000/svg" fill="#696969" width="22" height="22" viewBox="0 0 22 22" aria-labelledby="icon-svg-title- icon-svg-desc-" role="img"><title>star-empty</title><path d="M10 3.28l1.9 4.12 0.32 0.7 0.76 0.1 4.5 0.68-3.3 3.38-0.46 0.54 0.1 0.7 0.78 4.66-3.9-2.14-0.7-0.36-0.7 0.38-3.88 2.1 0.76-4.66 0.1-0.68-0.5-0.52-3.3-3.38 5.26-0.8 0.32-0.7 1.94-4.12zM6.76 6.8l-6.38 0.96c-0.22 0.040-0.38 0.22-0.38 0.44 0 0.12 0.040 0.24 0.12 0.32v0l4.64 4.76-1.1 6.66c0 0.020 0 0.040 0 0.080 0 0.24 0.2 0.44 0.44 0.44 0.1 0 0.16-0.020 0.24-0.060v0l5.7-3.12 5.68 3.12c0.060 0.040 0.14 0.060 0.22 0.060 0.24 0 0.44-0.2 0.44-0.44 0-0.040 0-0.060 0-0.080v0l-1.1-6.66 4.64-4.76c0.080-0.080 0.12-0.2 0.12-0.32 0-0.22-0.16-0.4-0.36-0.44h-0.020l-6.38-0.96-2.96-6.18c-0.060-0.12-0.18-0.2-0.32-0.2s-0.26 0.080-0.32 0.2v0z"></path></svg>