<svg xmlns="http://www.w3.org/2000/svg" fill="#119199" width="16" height="16" viewBox="0 0 20 20" aria-labelledby="icon-svg-title- icon-svg-desc-" role="img"><path d="M1.5 10C1.5 5.3125 5.3125 1.5 10 1.5C14.6875 1.5 18.5 5.3125 18.5 10C18.5 14.6875 14.6875 18.5 10 18.5C5.3125 18.5 1.5 14.6875 1.5 10ZM0 10C0 15.5 4.5 20 10 20C15.5 20 20 15.5 20 10C20 4.5 15.5 0 10 0C4.5 0 0 4.5 0 10ZM13.75 7.25L8.75 12.1875L6.25 9.75C5.9375 9.4375 5.5 9.4375 5.1875 9.75C4.875 10 4.875 10.5 5.1875 10.8125L8.1875 13.8125C8.3125 13.9375 8.5 14.0625 8.75 14.0625C8.9375 14.0625 9.125 14 9.25 13.8125L14.75 8.3125C15.0625 8 15.0625 7.5625 14.75 7.25C14.4375 6.9375 14 6.9375 13.75 7.25Z"></path></svg>